#!OML:ASF F:\VICON\USERDATA\INSTALL\Justin_Nancy\Justin_Nancy.ASF
:FULLY-SPECIFIED
:DEGREES
204
root -3.72893 16.514 4.53712 -94.9803 -78.8096 100.427
lowerback 10.3883 -2.39423 -7.8894
upperback 0.45874 -4.15329 -0.0181451
thorax -4.7899 -1.89354 4.99491
lowerneck -20.1608 -2.71229 -9.05819
upperneck 17.7086 -2.17393 5.12868
head 9.03794 -1.08818 2.95466
rclavicle -3.3197e-014 -1.03368e-014
rhumerus -45.6211 -22.9704 -63.5962
rradius 27.6653
rwrist 7.96725
rhand -10.6521 8.97262
rfingers 7.12502
rthumb 15.3556 -20.4372
lclavicle -3.3197e-014 -1.03368e-014
lhumerus -21.2647 9.22523 78.9103
lradius 39.5272
lwrist -2.37368
lhand -18.6347 23.4352
lfingers 7.12502
lthumb 7.65772 53.2765
rfemur -46.6465 5.07419 11.4713
rtibia 36.1732
rfoot -3.87589 -10.8358
rtoes 15.7336
lfemur 17.0382 4.69459 -33.6114
ltibia 3.49861e-014
lfoot -24.0895 13.995
ltoes -32.1803
205
root -3.95747 16.5 4.55019 -92.8466 -78.9615 98.3257
lowerback 10.0975 -2.61433 -8.01596
upperback 0.491138 -4.41416 0.267827
thorax -4.52334 -2.03002 5.37672
lowerneck -19.8709 -2.66415 -9.33326
upperneck 17.4808 -2.00862 4.94649
head 8.8977 -1.04963 2.9556
rclavicle 3.77691e-014 3.18055e-015
rhumerus -45.4899 -23.5144 -63.1646
rradius 27.9272
rwrist 8.2624
rhand -10.5076 9.40346
rfingers 7.12502
rthumb 15.4948 -19.9956
lclavicle 3.77691e-014 3.18055e-015
lhumerus -21.2473 9.41675 79.52
lradius 39.3326
lwrist -3.21613
lhand -18.7366 23.4711
lfingers 7.12502
lthumb 7.55936 53.316
rfemur -46.4253 4.52402 11.4577
rtibia 33.8975
rfoot -4.54757 -10.2692
rtoes 12.36
lfemur 17.8547 4.0572 -33.5398
ltibia -1.59028e-014
lfoot -24.0589 13.9884
ltoes -31.8646
206
root -4.18089 16.5 4.54581 -96.5341 -79.8414 102.018
lowerback 9.92702 -2.52196 -7.82085
upperback 0.496503 -4.21828 0.873599
thorax -4.41756 -1.93574 5.87303
lowerneck -19.7496 -2.61581 -9.9451
upperneck 17.5726 -1.82084 5.14322
head 8.9022 -0.986346 3.15064
rclavicle -1.11319e-014 7.15625e-015
rhumerus -45.2041 -23.1326 -63.2797
rradius 28.0403
rwrist 8.50861
rhand -11.5497 9.69217
rfingers 7.12502
rthumb 14.4909 -19.7818
lclavicle -1.11319e-014 7.15625e-015
lhumerus -21.4342 9.52511 80.1737
lradius 39.1596
lwrist -3.94165
lhand -20.7129 24.4167
lfingers 7.12502
lthumb 5.65155 54.3214
rfemur -46.0945 4.8201 12.7559
rtibia 31.8798
rfoot -6.18534 -9.31072
rtoes 8.37505
lfemur 18.7316 4.36037 -32.2707
ltibia -4.13472e-014
lfoot -24.1716 14.201
ltoes -31.4221
207
root -4.40897 16.4922 4.53548 -93.0261 -79.7957 98.5471
lowerback 9.73068 -2.72793 -8.22355
upperback 0.425273 -4.51773 0.943673
thorax -4.30035 -2.0786 6.19515
lowerneck -19.6037 -2.57768 -10.1713
upperneck 17.7273 -1.76291 5.31848
head 8.92852 -0.961857 3.25877
rclavicle -4.96962e-014 1.59028e-015
rhumerus -45.0571 -22.6734 -63.8553
rradius 28.0956
rwrist 8.05003
rhand -12.962 9.90915
rfingers 7.12502
rthumb 13.1298 -19.6575
lclavicle -4.96962e-014 1.59028e-015
lhumerus -21.4813 9.01148 80.5011
lradius 38.7868
lwrist -4.30122
lhand -18.805 22.8175
lfingers 7.12502
lthumb 7.4934 52.6648
rfemur -45.7927 4.89598 12.0073
rtibia 30.3089
rfoot -8.32017 -9.26294
rtoes 4.41009
lfemur 19.5235 3.52334 -32.3983
ltibia -7.63333e-014
lfoot -24.2265 13.9298
ltoes -31.2915
208
root -4.63293 16.4948 4.53873 -90.5518 -80.2249 96.0341
lowerback 9.69634 -2.86037 -7.93981
upperback 0.349326 -4.65344 1.08078
thorax -4.34936 -2.14457 6.19624
lowerneck -19.3206 -2.57386 -10.0857
upperneck 17.7805 -1.81342 5.29065
head 8.89965 -0.988566 3.22867
rclavicle -3.63776e-014 3.57812e-014
rhumerus -45.3164 -23.4503 -63.6518
rradius 28.4414
rwrist 7.79763
rhand -12.261 9.49324
rfingers 7.12502
rthumb 13.8055 -20.0287
lclavicle -3.63776e-014 3.57812e-014
lhumerus -21.5463 8.66817 80.8079
lradius 38.3277
lwrist -4.71824
lhand -19.1169 22.6346
lfingers 7.12502
lthumb 7.19234 52.4924
rfemur -45.3933 5.76593 11.4025
rtibia 29.1923
rfoot -10.5141 -9.17438
rtoes 5.02507
lfemur 20.4009 2.85647 -31.992
ltibia -6.36111e-015
lfoot -24.2797 13.5064
ltoes -31.2787
209
root -4.85822 16.4919 4.55052 -89.6549 -80.1783 94.85
lowerback 9.92313 -2.86139 -8.22623
upperback 0.279698 -4.70106 1.23932
thorax -4.50658 -2.15016 6.5517
lowerneck -19.1848 -2.69845 -10.3726
upperneck 18.1436 -1.94665 5.34987
head 9.01634 -1.07661 3.28379
rclavicle 3.4191e-014 -4.77083e-015
rhumerus -45.4941 -23.8399 -63.3072
rradius 28.7368
rwrist 7.66438
rhand -11.9196 9.1915
rfingers 7.12502
rthumb 14.1344 -20.3077
lclavicle 3.4191e-014 -4.77083e-015
lhumerus -21.7799 8.93773 81.434
lradius 37.7748
lwrist -5.60381
lhand -19.5231 22.9697
lfingers 7.12502
lthumb 6.80024 52.8405
rfemur -44.7524 6.37464 10.6637
rtibia 28.4568
rfoot -11.901 -8.30525
rtoes 5.75355
lfemur 21.525 2.4872 -32.0381
ltibia 8.26944e-014
lfoot -24.5971 13.0935
ltoes -30.5606
210
root -5.09653 16.4915 4.56397 -89.6902 -80.0837 94.688
lowerback 9.88911 -2.73758 -8.36224
upperback 0.211631 -4.55179 1.21775
thorax -4.57665 -2.06706 6.58992
lowerneck -18.9421 -2.79786 -10.2637
upperneck 18.4281 -2.12252 5.18628
head 9.08384 -1.18108 3.18894
rclavicle -5.28767e-014 1.03368e-014
rhumerus -45.7671 -24.0101 -63.3283
rradius 28.9035
rwrist 7.36617
rhand -12.5052 8.89264
rfingers 7.12502
rthumb 13.5701 -20.6451
lclavicle -5.28767e-014 1.03368e-014
lhumerus -21.9534 8.10194 82.133
lradius 37.297
lwrist -5.19876
lhand -20.8322 24.15
lfingers 7.12502
lthumb 5.53636 54.0577
rfemur -44.1094 5.90339 10.7358
rtibia 28.0502
rfoot -11.8982 -7.08051
rtoes 7.21759
lfemur 22.5857 2.27611 -32.1554
ltibia -2.22639e-014
lfoot -24.8709 12.4714
ltoes -30.2387
211
root -5.33916 16.5018 4.57863 -89.5848 -81.1788 94.8195
lowerback 9.35979 -2.69692 -7.14271
upperback 0.0919375 -4.30809 1.42418
thorax -4.51797 -1.96899 6.06159
lowerneck -18.8668 -2.85516 -9.93966
upperneck 18.8541 -2.27083 4.94929
head 9.22365 -1.26617 3.03834
rclavicle 2.00773e-014 2.78299e-014
rhumerus -46.0154 -24.3401 -63.5203
rradius 28.9484
rwrist 7.11804
rhand -13.1816 9.15256
rfingers 7.12502
rthumb 12.9182 -20.4276
lclavicle 2.00773e-014 2.78299e-014
lhumerus -22.1849 5.43446 83.0131
lradius 37.389
lwrist -1.41097
lhand -24.5615 27.9765
lfingers 7.12502
lthumb 1.93505 57.9475
rfemur -43.9126 5.0269 12.597
rtibia 28.2449
rfoot -10.6433 -6.52527
rtoes 6.87317
lfemur 23.2247 2.01031 -31.0134
ltibia -9.54166e-015
lfoot -25.2574 11.6581
ltoes -30.5139
212
root -5.57362 16.5109 4.60108 -90.8126 -81.6734 96.0251
lowerback 9.21004 -2.69736 -6.61009
upperback 0.0217778 -4.23338 1.5894
thorax -4.54386 -1.93866 5.92057
lowerneck -19.0245 -2.89516 -10.1046
upperneck 19.4289 -2.29584 4.99876
head 9.4578 -1.29823 3.08692
rclavicle 3.22031e-014 -7.95139e-016
rhumerus -45.8477 -24.201 -63.7848
rradius 28.9561
rwrist 6.72222
rhand -12.9099 9.32876
rfingers 7.12502
rthumb 13.1801 -20.2346
lclavicle 3.22031e-014 -7.95139e-016
lhumerus -22.1757 7.58341 82.5369
lradius 35.8922
lwrist -7.27156
lhand -19.325 24.2348
lfingers 7.12502
lthumb 6.99145 54.0993
rfemur -43.5304 4.10304 13.9835
rtibia 28.7975
rfoot -8.49005 -5.94095
rtoes 2.78945
lfemur 24.0789 1.95794 -30.5136
ltibia 3.81667e-014
lfoot -26.2625 10.6422
ltoes -29.8304
213
root -5.81105 16.5386 4.6124 -93.3592 -81.1794 98.3438
lowerback 9.32853 -2.56215 -7.26878
upperback -0.044197 -4.13312 1.62055
thorax -4.64798 -1.86671 6.3263
lowerneck -18.9676 -2.91991 -10.3004
upperneck 19.666 -2.24758 4.8097
head 9.52868 -1.3207 3.06193
rclavicle 1.94809e-014 4.29375e-014
rhumerus -45.7574 -24.2892 -63.6039
rradius 29.1255
rwrist 6.38535
rhand -11.3335 8.99517
rfingers 7.12502
rthumb 14.6992 -20.4637
lclavicle 1.94809e-014 4.29375e-014
lhumerus -22.5755 6.55595 83.745
lradius 35.7935
lwrist -4.35383
lhand -22.7669 26.6333
lfingers 7.12502
lthumb 3.66822 56.5815
rfemur -43.0667 3.73745 13.8434
rtibia 29.6522
rfoot -6.0535 -5.66225
rtoes 6.72429
lfemur 25.0471 2.13017 -30.9922
ltibia 2.54444e-014
lfoot -27.194 9.40763
ltoes -28.6621
214
root -6.05122 16.6 4.61409 -95.7974 -81.7985 100.928
lowerback 9.08238 -2.02708 -6.45387
upperback -0.230468 -3.32932 1.37617
thorax -4.89241 -1.47294 5.50837
lowerneck -18.3699 -3.2226 -8.95378
upperneck 19.6625 -3.0107 4.28014
head 9.44887 -1.64182 2.54991
rclavicle -2.24627e-014 -9.54166e-015
rhumerus -47.0361 -26.2665 -63.1582
rradius 29.4132
rwrist 6.53446
rhand -10.9702 8.95603
rfingers 7.12502
rthumb 15.0492 -20.477
lclavicle -2.24627e-014 -9.54166e-015
lhumerus -23.1015 3.40206 84.2204
lradius 35.8404
lwrist -3.78007
lhand -22.3229 27.5691
lfingers 7.12502
lthumb 4.097 57.5094
rfemur -43.0642 3.84341 14.5685
rtibia 30.9018
rfoot -3.70268 -6.51464
rtoes 15.021
lfemur 25.5777 2.16891 -30.2352
ltibia -2.54444e-014
lfoot -28.2033 7.81198
ltoes -28.1401
215
root -6.29182 16.6476 4.6278 -99.1096 -82.0197 104.137
lowerback 9.08149 -2.06107 -6.17182
upperback -0.386931 -3.33824 1.54375
thorax -5.06104 -1.47076 5.53307
lowerneck -18.139 -3.00333 -9.19483
upperneck 19.8556 -2.65886 4.21471
head 9.4521 -1.51403 2.61763
rclavicle -1.78906e-014 -1.66979e-014
rhumerus -46.864 -25.9137 -63.6303
rradius 29.267
rwrist 6.90948
rhand -12.2271 9.50207
rfingers 7.12502
rthumb 13.8381 -20.0176
lclavicle -1.78906e-014 -1.66979e-014
lhumerus -24.0669 3.99851 84.1616
lradius 35.7112
lwrist -5.81663
lhand -20.0031 26.7464
lfingers 7.12502
lthumb 6.33686 56.6316
rfemur -42.8734 4.27945 14.8556
rtibia 32.2963
rfoot -2.23538 -8.13162
rtoes 18.151
lfemur 26.3336 2.36282 -29.9274
ltibia -2.8625e-014
lfoot -29.67 5.84296
ltoes -27.903
216
root -6.53658 16.6818 4.64549 -101.813 -81.4628 106.478
lowerback 9.24174 -1.92505 -6.69565
upperback -0.396181 -3.23018 1.45196
thorax -5.15458 -1.40015 5.72929
lowerneck -18.1172 -2.8468 -9.19666
upperneck 20.1183 -2.43427 4.12231
head 9.52252 -1.42867 2.61876
rclavicle -3.49861e-014 1.82882e-014
rhumerus -46.5775 -25.751 -64.0654
rradius 28.8956
rwrist 7.46397
rhand -12.9312 9.9909
rfingers 7.12502
rthumb 13.1595 -19.5738
lclavicle -3.49861e-014 1.82882e-014
lhumerus -24.6703 4.33093 84.3633
lradius 35.298
lwrist -6.80929
lhand -15.6414 23.0967
lfingers 7.12502
lthumb 10.5461 52.8121
rfemur -42.3411 4.35102 14.5254
rtibia 33.4192
rfoot -1.90121 -9.15953
rtoes 16.9255
lfemur 27.2957 2.63711 -30.4554
ltibia -6.67916e-014
lfoot -31.2139 3.55151
ltoes -27.7533
217
root -6.78739 16.7224 4.65987 -104.985 -81.2979 109.526
lowerback 9.11729 -1.69447 -6.87271
upperback -0.418567 -2.9275 1.57095
thorax -5.1378 -1.24426 5.91442
lowerneck -18.1616 -2.877 -9.29024
upperneck 20.3267 -2.40854 3.92828
head 9.60238 -1.45196 2.571
rclavicle 2.74323e-014 -1.90833e-014
rhumerus -45.9812 -25.2959 -64.346
rradius 28.3774
rwrist 7.43087
rhand -13.4584 10.1187
rfingers 7.12502
rthumb 12.6513 -19.4782
lclavicle 2.74323e-014 -1.90833e-014
lhumerus -25.1468 3.01018 85.3321
lradius 35.1487
lwrist -5.19451
lhand -17.2812 24.9296
lfingers 7.12502
lthumb 8.96403 54.7191
rfemur -41.8772 4.37181 14.6826
rtibia 34.25
rfoot -2.49416 -9.03288
rtoes 14.2573
lfemur 24.1754 2.90442 -30.4888
ltibia 7.2708
lfoot -31.6831 4.04673
ltoes -27.3734
218
root -7.0408 16.7714 4.67436 -109.636 -81.4309 114.197
lowerback 8.81203 -1.46966 -6.50232
upperback -0.43492 -2.55912 1.72622
thorax -5.04583 -1.07354 5.81097
lowerneck -18.1662 -2.92479 -9.51537
upperneck 20.4055 -2.42106 3.95979
head 9.63637 -1.47432 2.61809
rclavicle -1.07344e-014 1.11319e-014
rhumerus -45.3867 -24.7915 -64.7489
rradius 27.9676
rwrist 7.54176
rhand -14.0644 10.1738
rfingers 7.12502
rthumb 12.067 -19.4582
lclavicle -1.07344e-014 1.11319e-014
lhumerus -25.6126 3.65515 85.9066
lradius 34.6296
lwrist -5.04777
lhand -17.7342 24.8755
lfingers 7.12502
lthumb 8.52687 54.6833
rfemur -41.3795 4.52994 15.2447
rtibia 34.7864
rfoot -2.86915 -7.76086
rtoes 13.6334
lfemur 20.8259 3.30892 -30.1922
ltibia 14.5035
lfoot -32.6407 3.97275
ltoes -26.826
